<?xml version="1.0"?>


<svg xmlns="http://www.w3.org/2000/svg" xml:space="preserve" width="70.9082mm" height="37.3944mm" version="1.1" style="shape-rendering:geometricPrecision; text-rendering:geometricPrecision; image-rendering:optimizeQuality; fill-rule:evenodd; clip-rule:evenodd" viewBox="0 0 7090.82 3739.44" xmlns:xlink="http://www.w3.org/1999/xlink" xmlns:xodm="http://www.corel.com/coreldraw/odm/2003">
 <defs>
  <style type="text/css">
   .fil0 { fill: #16243B; }
   .fil1 { fill: #FBF8F1; }
   .fil2 { fill: #16243B; }
   .fil3 { fill: #16243B; }
  </style>
 </defs>
 <g id="Layer_x0020_1">
  <metadata id="CorelCorpID_0Corel-Layer"></metadata>
  <g id="_1294328155536">
   <path class="fil0" d="M6788.67 1096.83c-139.3,-929.29 -1749.02,-1336.49 -3595.63,-909.81 -1846.61,426.89 -3230.76,1526.14 -3091.54,2455.51 139.22,929.3 1749.1,1336.65 3595.71,909.84 1846.61,-426.74 3230.69,-1526.16 3091.46,-2455.54z"></path>
   <path class="fil1" d="M6788.67 1235.28c-139.22,-762.81 -1749.04,-1097.15 -3595.59,-746.88 -1846.63,350.38 -3230.8,1252.83 -3091.58,2015.69 139.23,762.89 1749.05,1097.29 3595.68,746.88 1846.7,-350.31 3230.72,-1252.76 3091.49,-2015.69z"></path>
   <g>
    <path class="fil0" d="M3194.55 496.18l-2.96 -15.6 0 0 172.54 -30.87 170.94 -26.9 169.1 -22.98 167.03 -19.1 164.75 -15.29 162.24 -11.49 159.48 -7.77 156.53 -4.07 153.35 -0.44 149.92 3.16 146.28 6.7 142.43 10.21 138.33 13.66 134.03 17.07 129.48 20.42 124.72 23.76 119.74 27.02 114.52 30.26 109.09 33.44 103.43 36.58 97.55 39.68 91.46 42.75 85.11 45.76 78.57 48.76 71.78 51.69 64.77 54.62 57.52 57.5 50.02 60.32 42.29 63.15 34.29 65.89 26.05 68.57 17.55 71.19 -15.62 2.86 -17.09 -69.31 -25.39 -66.81 -33.45 -64.29 -41.35 -61.73 -49.04 -59.14 -56.52 -56.5 -63.79 -53.78 -70.84 -51.03 -77.69 -48.2 -84.29 -45.32 -90.68 -42.39 -96.85 -39.38 -102.77 -36.36 -108.47 -33.24 -113.94 -30.1 -119.2 -26.9 -124.2 -23.66 -129 -20.36 -133.57 -17.01 -137.89 -13.62 -142.01 -10.17 -145.88 -6.68 -149.54 -3.16 -152.97 0.44 -156.17 4.07 -159.14 7.75 -161.88 11.47 -164.41 15.25 -166.69 19.06 -168.78 22.94 -170.6 26.84 -172.22 30.81 0 0zm-3085.24 2006.49l-15.62 2.86 0 0 -8.74 -72.87 0.11 -73.55 8.76 -74.05 17.17 -74.41 25.39 -74.64 33.38 -74.74 41.16 -74.71 48.73 -74.55 56.1 -74.3 63.27 -73.92 70.25 -73.43 77.02 -72.81 83.6 -72.07 90 -71.2 96.18 -70.24 102.18 -69.13 108 -67.91 113.61 -66.55 119.03 -65.09 124.26 -63.48 129.29 -61.76 134.13 -59.91 138.79 -57.93 143.23 -55.83 147.5 -53.61 151.56 -51.25 155.44 -48.77 159.12 -46.16 162.6 -43.44 165.89 -40.57 169 -37.59 171.89 -34.48 2.96 15.6 -171.57 34.42 -168.66 37.51 -165.57 40.51 -162.28 43.34 -158.8 46.06 -155.1 48.67 -151.22 51.15 -147.16 53.47 -142.89 55.71 -138.43 57.77 -133.77 59.75 -128.91 61.58 -123.88 63.28 -118.63 64.87 -113.19 66.31 -107.56 67.63 -101.72 68.83 -95.72 69.88 -89.48 70.82 -83.08 71.61 -76.46 72.29 -69.67 72.81 -62.67 73.22 -55.5 73.48 -48.11 73.61 -40.54 73.61 -32.82 73.46 -24.89 73.18 -16.81 72.79 -8.54 72.27 -0.11 71.65 8.5 70.95 0 0zm3586.39 740.51l2.96 15.6 0 0 -172.55 30.88 -170.95 26.92 -169.09 22.98 -167.05 19.12 -164.75 15.29 -162.23 11.5 -159.5 7.78 -156.53 4.08 -153.35 0.44 -149.93 -3.15 -146.29 -6.7 -142.42 -10.21 -138.34 -13.66 -134.02 -17.07 -129.49 -20.43 -124.73 -23.75 -119.73 -27.03 -114.53 -30.26 -109.09 -33.44 -103.43 -36.58 -97.56 -39.69 -91.45 -42.75 -85.12 -45.77 -78.56 -48.76 -71.78 -51.7 -64.77 -54.63 -57.52 -57.5 -50.02 -60.34 -42.29 -63.15 -34.3 -65.89 -26.05 -68.58 -17.55 -71.2 15.62 -2.86 17.09 69.32 25.39 66.82 33.46 64.29 41.35 61.73 49.04 59.16 56.52 56.5 63.79 53.79 70.84 51.04 77.68 48.2 84.3 45.33 90.69 42.39 96.84 39.39 102.77 36.36 108.47 33.24 113.95 30.1 119.19 26.91 124.21 23.65 129.01 20.37 133.56 17.01 137.9 13.62 142 10.17 145.89 6.68 149.55 3.15 152.97 -0.44 156.17 -4.08 159.14 -7.76 161.89 -11.48 164.41 -15.25 166.71 -19.08 168.77 -22.94 170.61 -26.86 172.23 -30.82 0 0zm3085.16 -2006.49l15.62 -2.86 0 0 8.74 72.87 -0.11 73.56 -8.75 74.06 -17.17 74.41 -25.39 74.65 -33.37 74.73 -41.16 74.72 -48.73 74.56 -56.08 74.3 -63.27 73.93 -70.24 73.43 -77.02 72.81 -83.59 72.07 -89.99 71.2 -96.18 70.24 -102.18 69.13 -107.99 67.91 -113.61 66.55 -119.02 65.09 -124.25 63.48 -129.3 61.76 -134.13 59.9 -138.78 57.94 -143.23 55.82 -147.49 53.61 -151.57 51.24 -155.44 48.76 -159.12 46.17 -162.6 43.43 -165.89 40.57 -169.01 37.58 -171.9 34.47 -2.96 -15.6 171.58 -34.41 168.67 -37.52 165.57 -40.49 162.28 -43.33 158.8 -46.07 155.1 -48.66 151.23 -51.14 147.15 -53.47 142.89 -55.7 138.42 -57.78 133.77 -59.74 128.92 -61.58 123.87 -63.28 118.62 -64.87 113.19 -66.31 107.55 -67.63 101.72 -68.83 95.7 -69.88 89.49 -70.82 83.07 -71.61 76.46 -72.29 69.66 -72.81 62.67 -73.23 55.48 -73.48 48.11 -73.62 40.54 -73.6 32.81 -73.47 24.89 -73.19 16.81 -72.79 8.53 -72.28 0.11 -71.66 -8.5 -70.95 0 0z"></path>
   </g>
   <path class="fil2" d="M1171.83 1515.81c221.79,0 230.07,116.44 205.4,237.15l-47.29 158.21c-30.82,127.08 -137.54,262.62 -353.26,262.62l-976.69 0 43.92 -182.13 341.47 0 391.69 0c49.19,0 67.71,-12.65 78.03,-52.92l21.15 -61.91c10.25,-40.27 -2.12,-52.92 -51.38,-52.92l-352.97 0c-221.72,0 -227.86,-116.44 -203.27,-239.28l45.16 -151.82c36.97,-152.5 182.78,-254.15 367.61,-254.15l825.25 0 -43.93 182.13 -305.16 0 -256.71 0c-47.21,0 -69.83,12.7 -73.93,35.96l-27.3 83.18c-6.15,23.25 8.19,35.95 55.4,35.95l316.81 0 0 -0.07z"></path>
   <path class="fil2" d="M2180.2 1178.73l-18.37 73.85c28.17,-45.42 52.22,-73.85 120.5,-73.85l411.72 0c223.36,0 275.13,126.22 231.69,307.17l-93.06 374.6c-43.43,181.03 -157.22,307.27 -380.66,307.27l-382.81 0c-88.93,0 -99.26,-56.87 -103.39,-96.84l-4.12 0 -68.29 286.2c-24.85,100.98 -36.73,146.99 -46.09,185.24l-487.67 0 287.53 -1178.48c24.78,-101.05 33.63,-140.56 44.54,-185.23l488.48 0 0 0.07zm-175.14 719.74c-14.46,54.66 2.14,75.7 49.63,75.7l194.46 0c47.63,0 72.41,-21.04 86.94,-75.7l109.59 -450.39c14.52,-54.73 -2.07,-75.77 -49.63,-75.77l-194.47 0c-47.56,0 -72.34,21.04 -86.87,75.77l-109.65 450.39z"></path>
   <path class="fil2" d="M4113.86 1178.66c233.15,0 301.23,101.65 235.13,374.75l-105.21 434.02c-24.71,101.65 -35.29,145.94 -45.07,186.36l-486 0 26.84 -110.06 -4.19 0c-47.5,88.97 -71.18,110.06 -203.23,110.06l-346.58 0c-218.6,0 -257.78,-93.11 -208.3,-300.59l18.53 -72.02c49.48,-207.56 134.1,-300.67 352.69,-300.67l443.43 0c68.16,0 86.76,-17.03 99.11,-63.62 10.29,-44.45 0,-63.48 -68.16,-63.48l-484.67 0 -159.25 0 47.79 -194.75 887.14 0zm-503.28 516.61c-74.25,2.17 -105.2,12.65 -123.81,84.72l-26.84 114.3c-18.52,72.02 8.24,82.65 82.5,84.72l113.45 0c92.78,0 107.2,-14.85 138.15,-141.87l33.01 -141.87 -216.46 0z"></path>
   <path class="fil2" d="M4927.28 1877.36c-16.56,71.94 8.24,101.65 86.69,101.65l237.46 0c161,0 187.79,-1.03 251.88,-1.03l-49.23 195.81 -780.74 0c-222.97,0 -274.55,-127 -231.21,-309.13l92.86 -376.95c43.35,-182.05 156.96,-309.05 379.85,-309.05l781.05 0 -46.51 194.75 -210.24 0 -278.67 0c-78.36,0 -115.53,29.66 -136.2,101.68l-96.99 402.27z"></path>
   <path class="fil2" d="M6149.67 1784.25l-22.73 93.11c-16.43,71.94 8.21,101.65 86.54,101.65l466.99 0c92.63,0 144.64,-1.03 235.58,-1.03l-47.38 195.81 -1019.42 0c-218.2,0 -257.22,-93.11 -207.78,-300.59l96.67 -393.88c49.35,-207.48 133.7,-300.66 351.83,-300.66l738.73 0c218.13,0 257.22,93.1 207.78,300.66l-74.06 304.93 -812.75 0zm386.83 -194.79l32.92 -135.56c14.38,-57.2 1.99,-80.49 -51.48,-80.49l-199.57 0c-53.47,0 -74.15,23.29 -88.53,80.49l-32.86 135.56 339.52 0z"></path>
   <path class="fil3" d="M2207.9 2388.08c0,-56.85 -30.18,-85.27 -90.55,-85.27 -32.03,0 -56.47,3.85 -73.48,11.49 -3.61,1.51 -5.01,4.46 -4.12,8.77l3.01 19.88c1.04,4.23 2.8,5.82 5.38,4.91 22.53,-6.43 43.44,-9.68 62.88,-9.68 36.58,0 54.92,16.79 54.92,50.28l0 162.05c0,4.68 2.36,7.02 7.14,7.02l28.35 0c4.27,0 6.4,-2.34 6.4,-7.02l0 -162.43 0.07 0zm310.78 -82.93l-30.7 0c-4.05,0 -6.03,2.19 -6.03,6.81l-4.57 164.92c-0.3,20.33 -9.58,34.32 -27.9,42.03 -10.24,4.69 -27.98,6.95 -53.24,6.95 -3.09,0 -3.68,-1.58 -1.69,-4.76l14.73 -22.53c3.75,-5.59 5.59,-11.11 5.59,-16.7l2.8 -169.91c0.29,-4.62 -2.07,-6.81 -7.14,-6.81l-27.91 0c-4.49,0 -6.7,2.19 -6.7,6.81l-1.69 207.32c0,4.39 -1.63,6.5 -4.71,6.5 -23.05,0 -40.64,-0.97 -52.72,-2.94l-1.32 -210.88c0,-4.62 -2.51,-6.81 -7.59,-6.81l-27.46 0c-5.38,0 -7.95,2.19 -7.95,6.81l4.34 229.4c0,5.82 1.26,9.82 3.76,11.8 2.5,2.03 8.68,3.47 18.47,4.45 21.5,1.74 48.23,2.65 80.18,2.65 43.67,0 75.91,-4.99 96.82,-15.05 26.8,-13.23 40.87,-36.66 42.19,-70.38l6.48 -163.4c0.3,-4.24 -1.77,-6.28 -6.04,-6.28zm136.28 44.15c0,-30.32 -16.49,-45.51 -49.33,-45.51 -14.65,0 -26.13,1.36 -34.38,4.08 -3.31,1.21 -4.57,3.63 -3.68,7.41l4.12 21.17c0.59,2.72 2.43,3.93 5.67,3.63 8.32,-1.22 13.55,-1.75 15.54,-1.75 13.25,0 19.88,6.13 19.88,18.45l0 193.8c0,4.69 2.35,7.03 7.14,7.03l27.91 0c4.7,0 7.13,-2.34 7.13,-7.03l0 -201.28zm205.79 -16.41c-15.61,-20.03 -41.45,-30.01 -77.53,-30.01 -29.23,0 -52.13,3.86 -68.54,11.49 -3.61,1.51 -4.94,4.46 -4.13,8.77l4.13 19.43c0.88,4.54 3.45,6.12 7.72,4.91 21.65,-6.2 38.8,-9.22 51.47,-9.22 25.03,0 42.56,6.58 52.42,19.81 9.86,13.3 14.8,37.54 14.8,73.07 0,35 -4.86,59.19 -14.58,72.57 -9.71,13.38 -26.73,20.11 -50.95,20.11 -21.49,0 -39.31,-1.81 -53.6,-5.44 -4.34,-1.21 -6.91,0.3 -7.8,4.53l-4.12 19.89c-0.89,4.38 0.51,7.33 4.12,8.76 11.41,5.3 32.25,7.87 62.73,7.87 38.44,0 66.19,-10.89 83.19,-32.74 15.98,-20.78 24.01,-53.44 24.01,-97.81 0.14,-44.05 -7.66,-76.1 -23.34,-95.99zm241.79 16.41c0,-13.84 -4.49,-24.87 -13.48,-33.12 -9.05,-8.23 -20.98,-12.32 -35.78,-12.32 -14.72,0 -26.13,1.37 -34.38,4.09 -3.32,1.21 -4.57,3.63 -3.68,7.41l4.12 21.16c0.59,2.72 2.43,3.94 5.67,3.63 8.32,-1.21 13.55,-1.74 15.54,-1.74 13.25,0 19.95,6.12 19.95,18.45l0 73.98c0,4.69 2.36,6.95 7.14,6.95l27.9 0c4.72,0 7.15,-2.26 7.15,-6.95l0 -81.54 -0.15 0zm154.02 6.96c0,-35 -19.36,-52.47 -58.16,-52.47 -16.12,0 -29.37,1.51 -39.76,4.54 -3.16,0.9 -4.34,3.17 -3.46,6.95l3.9 23.51c0.3,3.17 2.07,4.46 5.45,3.86 8.76,-1.97 18.78,-2.95 30.04,-2.95 13.55,0 20.32,7.33 20.32,21.84l0 159.11 -59.71 0c-4.71,0 -7.14,2.34 -7.14,7.03l0 22.98c0,4.69 2.36,7.03 7.14,7.03l94.24 0c4.71,0 7.14,-2.34 7.14,-7.03l0 -194.4zm134.74 -6.96c0,-30.32 -16.42,-45.51 -49.25,-45.51 -14.73,0 -26.14,1.36 -34.39,4.08 -3.31,1.21 -4.56,3.63 -3.68,7.41l4.13 21.17c0.58,2.72 2.42,3.93 5.66,3.63 8.32,-1.22 13.55,-1.75 15.54,-1.75 13.25,0 19.95,6.13 19.95,18.45l0 193.8c0,4.69 2.36,7.03 7.15,7.03l27.9 0c4.71,0 7.14,-2.34 7.14,-7.03l0 -201.28 -0.15 0zm236.86 -37.42c0,-4.61 -2.21,-6.8 -6.7,-6.8l-172.95 0c-4.49,0 -6.7,2.19 -6.7,6.8l0 23.2c0,4.69 2.28,7.04 6.7,7.04l122.95 0c3.1,0 3.47,1.21 1.33,3.63l-9.72 13.3c-5.08,6.73 -7.58,14.06 -7.58,21.85l0 169.68c0,4.69 2.21,7.03 6.7,7.03l28.71 0c4.49,0 6.71,-2.34 6.71,-7.03l0 -199.24c0,-6.2 1.76,-9.22 5.15,-9.22l18.62 0c4.5,0 6.7,-2.35 6.7,-7.04l0 -23.2 0.08 0zm224.85 -6.73l-29.96 0c-4.72,0 -7.37,2.19 -7.67,6.81l-3.67 152.75c-0.59,37.27 -17.75,55.86 -51.62,55.86l-14.28 0 -30.04 -209.6c-0.59,-3.93 -2.94,-5.82 -7.14,-5.82l-30.48 0c-5.01,0 -6.99,3.1 -5.82,9.22l29.82 171.35c1.48,7.94 4.79,14.66 10.16,20.34l9.35 9.67c0.89,0.91 0.96,1.89 0.37,3.18 -0.52,1.21 -1.4,1.74 -2.28,1.74l-52.57 0c-4.72,0 -7.15,2.95 -7.15,8.76l0 21.17c0,4.69 2.36,7.03 7.15,7.03l78.26 0c32.54,0 58.09,-7.48 76.57,-22.45 18.41,-14.97 28.35,-37.12 29.82,-66.6l7.58 -155.55c-0.07,-5.29 -2.2,-7.86 -6.4,-7.86zm135.25 44.15c0,-30.32 -16.42,-45.51 -49.25,-45.51 -14.73,0 -26.14,1.36 -34.39,4.08 -3.31,1.21 -4.64,3.63 -3.68,7.41l4.05 21.17c0.67,2.72 2.5,3.93 5.67,3.63 8.32,-1.22 13.55,-1.75 15.53,-1.75 13.26,0 19.96,6.13 19.96,18.45l0 193.8c0,4.69 2.36,7.03 7.14,7.03l27.91 0c4.71,0 7.13,-2.34 7.13,-7.03l0 -201.28 -0.07 0zm271.9 37.87c0,-29.79 -8.32,-51.78 -24.88,-65.99 -13.33,-11.87 -31.22,-17.85 -53.82,-17.85 -41.38,0 -68.25,25.33 -80.62,76.05l-1.7 8.25c-0.58,1.96 -1.61,2.94 -3.23,2.94 -1.47,0 -2.14,-1.13 -2.14,-3.4l0 -19.81c0.29,-11.71 -0.44,-20.78 -2.13,-27.28l-7.95 -28.65c-1.26,-4.24 -3.91,-6.28 -8.03,-6.28l-31.37 0c-2.43,0 -4.27,1.06 -5.37,3.18 -0.59,1.73 -0.59,3.7 0,5.59l25.77 69.62c7.87,21.52 11.85,38 11.85,49.34 0,4.08 -0.44,7.63 -1.33,10.66l-24.88 107.04c-1.18,4.69 0.37,7.03 4.64,7.03l28.27 0c4.72,0 7.73,-2.34 8.91,-7.03l35.04 -152.77c4.65,-20.85 10.17,-35.58 16.65,-44.2 8.1,-10.21 19.07,-15.28 32.83,-15.28 27.84,0 41.68,17.17 41.68,51.41l0 89.86c0,29.93 -13.84,44.91 -41.68,44.91 -3.9,0 -14.8,-1.6 -32.83,-4.77 -2.88,-0.61 -4.64,0.76 -5.16,4.08l-4.12 21.39c-0.3,2.05 0.66,4.09 2.8,5.82 7.36,6.2 23.04,9.23 46.9,9.23 50.73,0 76.13,-28.58 76.13,-85.88l0 -87.21 -0.23 0zm371.38 0.38c0,-27.59 -6.7,-48.23 -19.95,-61.69 -15.1,-15.04 -39.91,-22.6 -74.37,-22.6 -27.83,0 -54.85,2.42 -81.06,7.26 -10.45,2.26 -15.61,7.94 -15.61,17.16l0 178.3c0,13.53 -5.74,20.26 -17.3,20.26 -1.91,0 -9.65,-1.13 -22.9,-3.4 -1.69,-0.23 -2.8,1.21 -3.24,4.31l-3.9 21.69c-0.3,2.04 0.88,3.86 3.46,5.14 9.2,4.54 19.95,6.81 32.39,6.81 35.42,0 53.16,-18.14 53.16,-54.43l0 -129.32c0,-4.53 -1.25,-8.77 -3.68,-12.85l-8.39 -13.98c-1.47,-2.43 -0.81,-3.93 1.91,-4.54 15.54,-4.46 35.42,-6.58 59.71,-6.58 38.36,0 57.43,14.97 57.43,44.91l0 166.51c0,4.68 2.43,7.02 7.21,7.02l28.35 0c4.5,0 6.7,-2.34 6.7,-7.02l0 -162.96 0.08 0zm310.7 -82.4l-30.7 0c-4.05,0 -6.04,2.19 -6.04,6.81l-4.64 164.92c-0.3,20.33 -9.57,34.32 -27.83,42.03 -10.31,4.69 -27.98,6.95 -53.23,6.95 -3.16,0 -3.76,-1.58 -1.69,-4.76l14.72 -22.53c3.68,-5.59 5.52,-11.11 5.52,-16.7l2.87 -169.91c0.3,-4.62 -2.06,-6.81 -7.21,-6.81l-27.83 0c-4.57,0 -6.77,2.19 -6.77,6.81l-1.7 207.32c0,4.39 -1.55,6.5 -4.71,6.5 -23.05,0 -40.64,-0.97 -52.72,-2.94l-1.39 -210.88c0,-4.62 -2.51,-6.81 -7.52,-6.81l-27.53 0c-5.3,0 -7.95,2.19 -7.95,6.81l4.34 229.4c0,5.82 1.33,9.82 3.83,11.8 2.5,2.03 8.69,3.47 18.48,4.45 21.5,1.74 48.15,2.65 80.18,2.65 43.73,0 75.98,-4.99 96.82,-15.05 26.8,-13.23 40.93,-36.66 42.11,-70.38l6.55 -163.4c0.37,-4.24 -1.61,-6.28 -5.96,-6.28zm220.8 82.93c0,-56.85 -30.18,-85.27 -90.56,-85.27 -32.02,0 -56.54,3.85 -73.48,11.49 -3.6,1.51 -4.93,4.46 -4.12,8.77l3.02 19.88c1.03,4.23 2.8,5.82 5.37,4.91 22.54,-6.43 43.45,-9.68 62.88,-9.68 36.59,0 54.93,16.79 54.93,50.28l0 162.05c0,4.68 2.36,7.02 7.14,7.02l28.27 0c4.42,0 6.55,-2.34 6.55,-7.02l0 -162.43z"></path>
  </g>
 </g>
</svg>