<svg xmlns="http://www.w3.org/2000/svg" viewBox="0 0 690 690" role="img" aria-label="Gesher"><g transform="translate(105.38,172.88) scale(1.00000)" fill="#16243B" fill-rule="evenodd"><path d="M479 0 L429 1 L429 25 L428 26 L335 27 L334 28 L321 28 L320 29 L303 30 L302 31 L296 31 L260 38 L256 40 L239 44 L227 49 L224 49 L204 57 L166 76 L151 85 L124 104 L103 122 L85 140 L67 161 L51 183 L50 182 L50 78 L51 77 L139 77 L153 67 L167 59 L196 45 L215 38 L180 31 L156 29 L155 28 L144 28 L143 27 L52 27 L50 25 L50 1 L0 1 L0 344 L49 344 L51 321 L58 288 L66 264 L79 235 L94 210 L112 186 L141 156 L155 144 L192 119 L209 110 L237 98 L265 89 L290 83 L295 83 L308 80 L315 80 L316 79 L324 79 L325 78 L337 78 L338 77 L428 77 L429 78 L429 183 L428 184 L415 165 L391 137 L361 109 L338 92 L330 92 L329 93 L321 93 L320 94 L300 96 L280 100 L260 106 L274 112 L297 125 L330 149 L361 179 L381 204 L401 237 L416 272 L426 309 L430 344 L479 344 Z"></path></g></svg>