<svg xmlns="http://www.w3.org/2000/svg" viewBox="0 0 6167 2349" role="img" aria-label="gesher"><g transform="translate(177,1630) scale(1,-1)" fill="#16243B"><path d="M445.0 -519Q342.0 -519 263.0 -503.0Q184.0 -487 130.5 -457.0Q77.0 -427 50.0 -382.5Q23.0 -338 23.0 -281Q23.0 -241 44.0 -204.5Q65.0 -168 110.0 -137.0Q155.0 -106 225.0 -82.0Q295.0 -58 393.0 -41H449.0V-64Q347.0 -78 288.0 -107.0Q229.0 -136 205.0 -176.0Q181.0 -216 181.0 -264Q181.0 -320 210.5 -359.0Q240.0 -398 302.0 -418.0Q364.0 -438 462.0 -438Q562.0 -438 635.0 -412.0Q708.0 -386 747.5 -340.5Q787.0 -295 787.0 -240Q787.0 -201 770.0 -174.0Q753.0 -147 714.0 -128.5Q675.0 -110 608.5 -100.0Q542.0 -90 442.0 -85Q342.0 -80 277.5 -63.0Q213.0 -46 176.5 -19.5Q140.0 7 125.5 40.5Q111.0 74 111.0 112Q111.0 180 174.5 227.0Q238.0 274 354.0 295L376.0 276Q321.0 269 292.5 244.0Q264.0 219 264.0 176Q264.0 152 273.0 132.5Q282.0 113 309.0 98.5Q336.0 84 391.5 74.5Q447.0 65 540.0 60Q634.0 55 708.0 39.5Q782.0 24 833.0 -5.5Q884.0 -35 911.5 -81.0Q939.0 -127 939.0 -192Q939.0 -280 880.0 -354.5Q821.0 -429 710.0 -474.0Q599.0 -519 445.0 -519ZM448.0 257Q344.0 257 261.0 298.0Q178.0 339 131.0 411.5Q84.0 484 84.0 578Q84.0 674 131.0 747.0Q178.0 820 261.0 860.5Q344.0 901 448.0 901Q527.0 901 593.0 877.5Q659.0 854 708.0 811.0Q757.0 768 784.5 709.5Q812.0 651 812.0 580Q812.0 484 764.5 411.0Q717.0 338 635.0 297.5Q553.0 257 448.0 257ZM456.0 335Q544.0 335 595.5 396.5Q647.0 458 647.0 570Q647.0 689 592.0 756.0Q537.0 823 441.0 823Q354.0 823 301.5 762.0Q249.0 701 249.0 588Q249.0 470 304.5 402.5Q360.0 335 456.0 335ZM580.0 821 544.0 886Q609.0 877 665.5 878.0Q722.0 879 769.5 884.5Q817.0 890 857.0 895.5Q897.0 901 929.0 901Q961.0 901 977.5 882.5Q994.0 864 994.0 825Q994.0 786 971.5 760.0Q949.0 734 918.0 734Q892.0 734 866.5 746.5Q841.0 759 806.5 776.0Q772.0 793 717.5 806.0Q663.0 819 580.0 821ZM1545.0 901Q1653.0 901 1728.5 854.0Q1804.0 807 1846.5 717.5Q1889.0 628 1898.0 499H1259.0L1260.0 578L1793.0 598L1727.0 559Q1721.0 638 1698.0 694.5Q1675.0 751 1634.0 781.5Q1593.0 812 1532.0 812Q1458.0 812 1403.0 773.5Q1348.0 735 1318.0 660.5Q1288.0 586 1288.0 476Q1288.0 360 1331.0 278.0Q1374.0 196 1454.0 152.5Q1534.0 109 1643.0 109Q1686.0 109 1726.0 119.5Q1766.0 130 1805.0 149.5Q1844.0 169 1880.0 196L1900.0 156Q1848.0 97 1792.0 57.5Q1736.0 18 1676.0 -1.0Q1616.0 -20 1550.0 -20Q1427.0 -20 1332.5 37.0Q1238.0 94 1184.5 195.0Q1131.0 296 1131.0 428Q1131.0 561 1181.0 668.0Q1231.0 775 1324.0 838.0Q1417.0 901 1545.0 901ZM2449.0 901Q2508.0 901 2558.5 890.0Q2609.0 879 2672.0 850L2690.0 609H2631.0L2530.0 853L2613.0 765Q2570.0 793 2530.5 807.0Q2491.0 821 2448.0 821Q2364.0 821 2317.5 788.0Q2271.0 755 2271.0 695Q2271.0 642 2300.5 611.0Q2330.0 580 2378.0 559.0Q2426.0 538 2482.0 517Q2524.0 502 2565.0 481.5Q2606.0 461 2640.0 431.0Q2674.0 401 2694.5 357.0Q2715.0 313 2715.0 248Q2715.0 162 2672.0 102.0Q2629.0 42 2553.0 11.5Q2477.0 -19 2376.0 -19Q2314.0 -19 2260.0 -10.0Q2206.0 -1 2158.0 19L2114.0 268H2177.0L2308.0 14L2186.0 96Q2224.0 79 2252.0 70.5Q2280.0 62 2304.5 59.5Q2329.0 57 2354.0 57Q2459.0 57 2517.5 95.5Q2576.0 134 2576.0 210Q2576.0 255 2554.5 284.0Q2533.0 313 2496.5 332.5Q2460.0 352 2417.5 367.5Q2375.0 383 2335.0 399Q2281.0 423 2236.5 453.0Q2192.0 483 2165.5 532.0Q2139.0 581 2139.0 657Q2139.0 734 2179.0 788.5Q2219.0 843 2289.0 872.0Q2359.0 901 2449.0 901ZM3496.0 47 3651.0 94V574Q3651.0 631 3628.0 671.0Q3605.0 711 3559.0 732.5Q3513.0 754 3444.0 754Q3366.0 754 3297.0 727.0Q3228.0 700 3196.0 662L3161.0 695Q3221.0 755 3270.5 794.5Q3320.0 834 3364.5 857.5Q3409.0 881 3455.0 891.0Q3501.0 901 3553.0 901Q3682.0 901 3744.0 822.5Q3806.0 744 3806.0 577V94L3962.0 47V0H3496.0ZM3361.0 0H2896.0V47L3051.0 94V1225Q3038.0 1239 3014.0 1254.5Q2990.0 1270 2957.5 1286.5Q2925.0 1303 2886.0 1318V1348L3193.0 1430H3217.0L3205.0 1262V94L3361.0 47ZM4538.0 901Q4646.0 901 4721.5 854.0Q4797.0 807 4839.5 717.5Q4882.0 628 4891.0 499H4252.0L4253.0 578L4786.0 598L4720.0 559Q4714.0 638 4691.0 694.5Q4668.0 751 4627.0 781.5Q4586.0 812 4525.0 812Q4451.0 812 4396.0 773.5Q4341.0 735 4311.0 660.5Q4281.0 586 4281.0 476Q4281.0 360 4324.0 278.0Q4367.0 196 4447.0 152.5Q4527.0 109 4636.0 109Q4679.0 109 4719.0 119.5Q4759.0 130 4798.0 149.5Q4837.0 169 4873.0 196L4893.0 156Q4841.0 97 4785.0 57.5Q4729.0 18 4669.0 -1.0Q4609.0 -20 4543.0 -20Q4420.0 -20 4325.5 37.0Q4231.0 94 4177.5 195.0Q4124.0 296 4124.0 428Q4124.0 561 4174.0 668.0Q4224.0 775 4317.0 838.0Q4410.0 901 4538.0 901ZM5691.0 895Q5741.0 895 5765.5 870.0Q5790.0 845 5790.0 804Q5790.0 756 5763.0 727.5Q5736.0 699 5690.0 699Q5664.0 699 5637.5 706.5Q5611.0 714 5583.0 721.0Q5555.0 728 5523.0 728Q5500.0 728 5473.0 722.0Q5446.0 716 5419.0 704.5Q5392.0 693 5371.0 677L5347.0 712Q5411.0 761 5462.0 795.5Q5513.0 830 5555.0 852.0Q5597.0 874 5630.5 884.5Q5664.0 895 5691.0 895ZM5394.0 713V94L5554.0 47V0H5084.0V47L5239.0 94V690Q5226.0 703 5204.0 715.0Q5182.0 727 5152.0 740.5Q5122.0 754 5085.0 768V796L5352.0 902H5376.0Z"></path></g></svg>